<svg xmlns="http://www.w3.org/2000/svg" width="1200" height="630" viewBox="0 0 1200 630">
  <defs>
    <pattern id="diag" width="16" height="16" patternUnits="userSpaceOnUse" patternTransform="rotate(45)">
      <line x1="0" y1="0" x2="0" y2="16" stroke="#ffffff" stroke-opacity="0.045" stroke-width="2" />
    </pattern>
  </defs>

  <rect width="1200" height="630" fill="#00063a" />
  <rect width="1200" height="630" fill="url(#diag)" />

  <!-- brand shape cluster, bottom-right -->
  <circle cx="800" cy="588" r="72" fill="none" stroke="#40d7e8" stroke-width="30" />
  <g transform="translate(858,438) scale(0.72)" fill="#ff8a00" fill-rule="evenodd">
    <path d="M100 0 200 100 100 200 0 100Z M64 64H136V136H64Z" />
  </g>
  <g transform="translate(985,470) scale(0.92)" fill="#ff9bea" fill-rule="evenodd">
    <path d="M40 0H160A40 40 0 0 1 200 40V160A40 40 0 0 1 160 200H40A40 40 0 0 1 0 160V40A40 40 0 0 1 40 0Z M70 60A10 10 0 0 0 60 70V130A10 10 0 0 0 70 140H130A10 10 0 0 0 140 130V70A10 10 0 0 0 130 60Z" />
  </g>
  <g transform="translate(1055,352) scale(0.66)" fill="#c7a4ff">
    <path d="M100 4 128 54 186 54 157 104 186 154 128 154 100 204 72 154 14 154 43 104 14 54 72 54Z" />
  </g>
  <circle cx="1150" cy="600" r="58" fill="none" stroke="#ffd044" stroke-width="26" />

  <!-- wordmark + tagline -->
  <text x="92" y="292" font-family="Helvetica, Arial, sans-serif" font-size="122" font-weight="700" letter-spacing="-6" fill="#fbfbf8">newbii</text>
  <text x="96" y="366" font-family="Helvetica, Arial, sans-serif" font-size="43" font-weight="600" fill="#c9cce4">A Home For Ambitious Africans In Tech</text>
  <text x="96" y="424" font-family="Helvetica, Arial, sans-serif" font-size="29" font-weight="400" fill="#8d91aa">Learn tech. Find mentors. Chase real opportunities — together.</text>
</svg>
